<?xml version="1.0" encoding="UTF-8" standalone="no" ?>
<!DOCTYPE svg PUBLIC "-//W3C//DTD SVG 1.1//EN" "http://www.w3.org/Graphics/SVG/1.1/DTD/svg11.dtd">
<svg xmlns="http://www.w3.org/2000/svg" xmlns:xlink="http://www.w3.org/1999/xlink" version="1.1" width="640" height="480" viewBox="0 0 640 480" xml:space="preserve">
<desc>Created with Fabric.js 3.6.6</desc>
<defs>
</defs>
<g transform="matrix(1 0 0 1 312.68 229.91)"  >
<g style=""   >
		<g transform="matrix(1 0 0 1 0 0)"  >
<path style="stroke: rgb(255,253,253); stroke-width: 1; stroke-dasharray: none; stroke-linecap: butt; stroke-dashoffset: 0; stroke-linejoin: round; stroke-miterlimit: 4; fill: rgb(231,100,81); fill-rule: nonzero; opacity: 1;"  transform=" translate(-125.18, -249.41)" d="M 36 235 Q 22 222 20 216 Q 13 203 18 198 Q 18 189 21 183 L 24 174 Q 32 178 40 174 Q 76 164 84 164 Q 134 178 150 186 Q 181 203 196 219 Q 215 239 222 243 Q 231 250 232 258 Q 237 263 233 273 Q 222 286 220 295 Q 217 309 212 318 Q 222 337 204 332 Q 178 323 176 314 Q 172 302 166 295 Q 159 278 147 270 Q 137 262 128 254 Q 131 248 112 240 Q 87 227 77 227 Q 56 225 52 227 L 36 235" stroke-linecap="round" />
</g>
		<g transform="matrix(1 0 0 1 -28.68 3.59)"  >
<path style="stroke: rgb(255,255,255); stroke-width: 1; stroke-dasharray: none; stroke-linecap: round; stroke-dashoffset: 0; stroke-linejoin: round; stroke-miterlimit: 10; fill: rgb(250,250,250); fill-rule: nonzero; opacity: 1;"  transform=" translate(-98, -256.5)" d="M 41 235.999 Q 41 236 41 236.5 Q 41 237 41 237.5 Q 41 238 41 238.5 Q 41 239 41 239.5 Q 41 240 41 240.5 Q 41 241 41.5 241 Q 42 241 42 241.5 Q 42 242 42.5 242 Q 43 242 43 242.5 Q 43 243 43 243.5 Q 43 244 43.5 244 Q 44 244 44 244.5 Q 44 245 44 245.5 Q 44 246 44.5 246 Q 45 246 45.5 246 Q 46 246 46 246.5 Q 46 247 46.5 247 Q 47 247 47.5 247 Q 48 247 48 248 Q 48 249 48.5 249 Q 49 249 49 249.5 Q 49 250 49.5 250 Q 50 250 50.5 250 Q 51 250 51.5 250 Q 52 250 53 250 Q 54 250 54.5 250 Q 55 250 55.5 250 Q 56 250 56.5 250 Q 57 250 57.5 250 Q 58 250 58.5 250 Q 59 250 59.5 250 Q 60 250 60.5 250 Q 61 250 61 250.5 Q 61 251 61.5 251 Q 62 251 62.5 251 Q 63 251 63.5 251 Q 64 251 64.5 251 Q 65 251 65.5 251 Q 66 251 66.5 251 Q 67 251 67.5 251 Q 68 251 68.5 251 Q 69 251 69 251.5 Q 69 252 69.5 252 Q 70 252 70 252.5 Q 70 253 70 253.5 Q 70 254 70.5 254 Q 71 254 71.5 254 Q 72 254 72 254.5 Q 72 255 72 255.5 Q 72 256 72 256.5 Q 72 257 73 257 Q 74 257 74 257.5 Q 74 258 74.5 258 Q 75 258 75.5 258 Q 76 258 76 258.5 Q 76 259 76 259.5 Q 76 260 76.5 260 Q 77 260 77.5 260 Q 78 260 78.5 260 Q 79 260 79.5 260 Q 80 260 80 259.5 Q 80 259 80.5 258.5 Q 81 258 81.5 258 Q 82 258 82.5 258 Q 83 258 83.5 258 Q 84 258 84.5 258 Q 85 258 85 258.5 Q 85 259 85.5 259 Q 86 259 86 259.5 Q 86 260 86 260.5 Q 86 261 86.5 261 Q 87 261 87 261.5 Q 87 262 87.5 262.5 Q 88 263 88 263.5 Q 88 264 88.5 264 Q 89 264 89.5 264 Q 90 264 90.5 264 Q 91 264 91 263.5 Q 91 263 91.5 263 Q 92 263 93 263 Q 94 263 94.5 263 Q 95 263 96.5 263.5 Q 98 264 99 264.5 Q 100 265 100 265.5 Q 100 266 100.5 266 Q 101 266 101 267 Q 101 268 101.5 268 Q 102 268 102 268.5 Q 102 269 102 269.5 Q 102 270 102.5 270 Q 103 270 103.5 270 Q 104 270 104 270.5 Q 104 271 104 271.5 Q 104 272 104.5 272 Q 105 272 105 272.5 Q 105 273 105.5 273 Q 106 273 106.5 273 Q 107 273 107.5 273 Q 108 273 108.5 273 Q 109 273 109.5 273 Q 110 273 110.5 273 Q 111 273 111.5 273 Q 112 273 112 272.5 Q 112 272 112.5 272 Q 113 272 113 271.5 Q 113 271 113.5 271 Q 114 271 114.5 271 Q 115 271 115 271.5 Q 115 272 115.5 272 Q 116 272 116 272.5 Q 116 273 116.5 273 Q 117 273 118 273 Q 119 273 119.5 273 Q 120 273 120 273.5 Q 120 274 120.5 274 Q 121 274 121.5 274 Q 122 274 122.5 274 Q 123 274 123.5 274 Q 124 274 124.5 274 Q 125 274 125.5 274 Q 126 274 126.5 274 Q 127 274 127.5 274 Q 128 274 128.5 274 Q 129 274 129.5 274 Q 130 274 130.5 274 Q 131 274 131.5 274 Q 132 274 133 274 Q 134 274 134.5 274 Q 135 274 135 274.5 Q 135 275 135.5 275 Q 136 275 136 275.5 Q 136 276 136 276.5 Q 136 277 136 277.5 Q 136 278 136.5 278 Q 137 278 137 278.5 Q 137 279 137.5 279 Q 138 279 138 279.5 Q 138 280 138 280.5 Q 138 281 138.5 281.5 Q 139 282 139 282.5 Q 139 283 139 283.5 Q 139 284 139.5 284 Q 140 284 140 284.5 Q 140 285 140.5 285.5 Q 141 286 141.5 286 Q 142 286 142.5 286 Q 143 286 143 286.5 Q 143 287 143.5 287 Q 144 287 144.5 287 Q 145 287 145.5 287 Q 146 287 146 286.5 Q 146 286 146 285.5 Q 146 285 146 284.5 Q 146 284 146 283.5 Q 146 283 146 282.5 Q 146 282 146.5 282 Q 147 282 147.5 282 Q 148 282 148 282.5 Q 148 283 148 283.5 Q 148 284 148.5 284 Q 149 284 149 284.5 Q 149 285 149.5 285 Q 150 285 150.5 285 Q 151 285 151.5 285 Q 152 285 152.5 285 Q 153 285 153.5 285 Q 154 285 154 284.5 Q 154 284 154.5 284 Q 155 284 155 283.5 Q 155 283 155 282.5 Q 155 282 155 281.5 Q 155 281 155 280.5 Q 155 280 155 279.5 Q 155 279 154 279 Q 153 279 153 278.5 Q 153 278 153 277.5 Q 153 277 153 276.5 Q 153 276 152.5 276 Q 152 276 152 275 Q 152 274 152 273.5 Q 152 273 152 272.5 Q 152 272 151.5 272 Q 151 272 150.5 271 Q 150 270 149.5 270 Q 149 270 148.5 270 Q 148 270 148 269.5 Q 148 269 148 268.5 Q 148 268 147.5 267 Q 147 266 146.5 266 Q 146 266 145.5 265.5 Q 145 265 145 264.5 Q 145 264 144.5 264 Q 144 264 144 263.5 Q 144 263 143.5 263 Q 143 263 143 262.5 Q 143 262 142.5 262 Q 142 262 141.5 262 Q 141 262 141 261.5 Q 141 261 140.5 260 Q 140 259 140 258.5 Q 140 258 139 258 Q 138 258 137.5 256.5 Q 137 255 136.5 255 Q 136 255 136 254.5 Q 136 254 135.5 253.5 Q 135 253 135 252 Q 135 251 134 251 Q 133 251 132.5 251 Q 132 251 132 250.5 Q 132 250 131.5 249.5 Q 131 249 130.5 248.5 Q 130 248 129.5 247 Q 129 246 128.5 246 Q 128 246 127.5 246 Q 127 246 127 245.5 Q 127 245 126.5 244.5 Q 126 244 125.5 243.5 Q 125 243 125 242.5 Q 125 242 124.5 242 Q 124 242 123.5 242 Q 123 242 122.5 241 Q 122 240 121 239.5 Q 120 239 120 238.5 Q 120 238 119 238 Q 118 238 117.5 238 Q 117 238 116.5 238 Q 116 238 115.5 237 Q 115 236 114.5 236 Q 114 236 113.5 236 Q 113 236 112.5 236 Q 112 236 112 235.5 Q 112 235 111 234.5 Q 110 234 109.5 234 Q 109 234 108.5 234 Q 108 234 107.5 234 Q 107 234 107 233.5 Q 107 233 106.5 233 Q 106 233 105.5 233 Q 105 233 104.5 233 Q 104 233 103.5 233 Q 103 233 103 232.5 Q 103 232 102.5 232 Q 102 232 101.5 232 Q 101 232 100.5 232 Q 100 232 99 231.5 Q 98 231 97.5 231 Q 97 231 96 230.5 Q 95 230 94 230 Q 93 230 92.5 229.5 Q 92 229 91.5 229 Q 91 229 90.5 228.5 Q 90 228 89 228 Q 88 228 87.5 228 Q 87 228 86.5 228 Q 86 228 86 227.5 Q 86 227 85.5 227 Q 85 227 84.5 227 Q 84 227 83 227 Q 82 227 81.5 227 Q 81 227 80.5 227 Q 80 227 79 226.5 Q 78 226 77.5 226 Q 77 226 76.5 226 Q 76 226 75.5 226 Q 75 226 74.5 226 Q 74 226 73.5 226 Q 73 226 72.5 226 Q 72 226 71 226 Q 70 226 69 226 Q 68 226 67.5 226 Q 67 226 66.5 226 Q 66 226 65.5 226 Q 65 226 64.5 226.5 Q 64 227 63 227 Q 62 227 61.5 227 Q 61 227 60.5 227.5 Q 60 228 60 228.5 Q 60 229 59 229 Q 58 229 57.5 229 Q 57 229 56.5 229.5 Q 56 230 56 230.5 Q 56 231 55.5 231 Q 55 231 54 231 Q 53 231 52.5 231 Q 52 231 52 231.5 Q 52 232 51.5 232 Q 51 232 51 232.5 Q 51 233 50.5 233 Q 50 233 49.5 233 Q 49 233 48.5 233 Q 48 233 48 233.5 Q 48 234 47.5 234 Q 47 234 46.5 234 Q 46 234 45.5 234 Q 45 234 44.5 234 Q 44 234 43.5 234 Q 43 234 43 234.5 Q 43 235 42.5 235 Q 42 235 41.5 235 L 40.999 235" stroke-linecap="round" />
</g>
</g>
</g>
</svg>